<svg width="24" height="24" viewBox="0 0 24 24" fill="none" xmlns="http://www.w3.org/2000/svg">
<path d="M12 13C12.5523 13 13 12.5523 13 12C13 11.4477 12.5523 11 12 11C11.4477 11 11 11.4477 11 12C11 12.5523 11.4477 13 12 13Z" stroke="white" stroke-width="2" stroke-linecap="round" stroke-linejoin="round"/>
<path d="M20.1999 20.2C22.2399 18.17 20.2199 12.84 15.6999 8.30001C11.1599 3.78001 5.82989 1.76001 3.79989 3.80001C1.75989 5.83001 3.77989 11.16 8.29989 15.7C12.8399 20.22 18.1699 22.24 20.1999 20.2Z" stroke="white" stroke-width="2" stroke-linecap="round" stroke-linejoin="round"/>
<path d="M15.6999 15.7C20.2199 11.16 22.2399 5.83001 20.1999 3.80001C18.1699 1.76001 12.8399 3.78001 8.29989 8.30001C3.77989 12.84 1.75989 18.17 3.79989 20.2C5.82989 22.24 11.1599 20.22 15.6999 15.7Z" stroke="white" stroke-width="2" stroke-linecap="round" stroke-linejoin="round"/>
</svg>
